# Blender v2.79 (sub 0) OBJ File: 'square.blend'
# www.blender.org
mtllib square.mtl
o Curve
v -0.207098 0.280662 -0.154072
v -0.217563 0.299498 -0.641344
v 0.460340 0.311397 -0.655443
v 0.470805 0.292561 -0.168171
v -0.195389 -0.418708 -0.181358
v -0.205854 -0.399872 -0.668630
v 0.472049 -0.387973 -0.682728
v 0.482513 -0.406809 -0.195456
v -0.195389 -0.418708 -0.181358
v -0.207098 0.280662 -0.154072
v -0.205854 -0.399872 -0.668630
v -0.217563 0.299498 -0.641344
v 0.472049 -0.387973 -0.682728
v 0.460340 0.311397 -0.655443
v 0.482513 -0.406809 -0.195456
v 0.470805 0.292561 -0.168171
vn -0.0167 0.9991 0.0390
vn 0.0167 -0.9991 -0.0390
vn -0.6917 -0.0397 0.7211
vn -0.7220 0.0149 -0.6917
vn 0.6917 0.0397 -0.7211
vn 0.7220 -0.0149 0.6917
usemtl SVGMat.001
s off
f 1//1 3//1 2//1
f 1//1 4//1 3//1
f 7//2 5//2 6//2
f 8//2 5//2 7//2
s 1
f 10//3 12//4 11//4 9//3
f 12//4 14//5 13//5 11//4
f 14//5 16//6 15//6 13//5
f 16//6 10//3 9//3 15//6
